<svg width="401" height="336" viewBox="0 0 401 336" fill="none" xmlns="http://www.w3.org/2000/svg">
<g clip-path="url(#clip0_4011_2456)">
<path d="M368.753 328.866L362.781 328.865L359.94 305.811H368.754L368.753 328.866Z" fill="#9E616A"/>
<path d="M370.276 334.659L351.02 334.659V334.415C351.02 332.426 351.81 330.518 353.215 329.111C354.621 327.704 356.527 326.914 358.515 326.914L370.276 326.914L370.276 334.659Z" fill="#2F2E41"/>
<path d="M345.859 328.866L339.887 328.865L337.046 305.811H345.86L345.859 328.866Z" fill="#9E616A"/>
<path d="M347.382 334.659L328.126 334.659V334.415C328.126 332.426 328.916 330.518 330.321 329.111C331.727 327.704 333.633 326.914 335.621 326.914L347.382 326.914L347.382 334.659Z" fill="#2F2E41"/>
<path d="M87.8545 333.768V148.599C87.8545 147.459 88.3072 146.365 89.1129 145.559C89.9186 144.752 91.0114 144.299 92.1508 144.299H111.324C112.463 144.299 113.556 144.752 114.361 145.559C115.167 146.365 115.62 147.459 115.62 148.599V334.25L87.8545 333.768Z" fill="#3F3D56"/>
<path d="M151.179 334.348V187.114C151.179 185.974 151.632 184.88 152.438 184.074C153.243 183.267 154.336 182.814 155.476 182.814H174.648C175.788 182.814 176.88 183.267 177.686 184.074C178.492 184.88 178.945 185.974 178.945 187.114V334.031L151.179 334.348Z" fill="#3F3D56"/>
<path d="M38.6557 159.422C38.3735 159.422 38.0974 159.34 37.8607 159.186C37.6239 159.032 37.4367 158.813 37.3217 158.555C37.2067 158.298 37.1687 158.012 37.2125 157.733C37.2562 157.454 37.3797 157.193 37.5681 156.983L101.675 85.4182L164.764 120.876L228.23 11.4269L292.883 64.687C293.031 64.809 293.154 64.9591 293.244 65.1287C293.335 65.2982 293.391 65.4839 293.409 65.6752C293.428 65.8665 293.409 66.0595 293.353 66.2434C293.297 66.4272 293.205 66.5982 293.083 66.7466C292.961 66.8949 292.811 67.0178 292.642 67.1081C292.472 67.1984 292.287 67.2544 292.095 67.2729C291.904 67.2914 291.711 67.272 291.528 67.2159C291.344 67.1597 291.173 67.0679 291.025 66.9457L229.03 15.8746L165.846 124.839L102.287 89.117L39.7442 158.936C39.6073 159.089 39.4395 159.211 39.252 159.295C39.0644 159.379 38.8612 159.422 38.6557 159.422Z" fill="#3F3D56"/>
<path d="M38.413 171.61C45.9457 171.61 52.0521 165.499 52.0521 157.959C52.0521 150.42 45.9457 144.309 38.413 144.309C30.8804 144.309 24.7739 150.42 24.7739 157.959C24.7739 165.499 30.8804 171.61 38.413 171.61Z" fill="#4F46E5"/>
<path d="M101.737 100.918C109.27 100.918 115.376 94.8068 115.376 87.2676C115.376 79.7285 109.27 73.6168 101.737 73.6168C94.2046 73.6168 88.0981 79.7285 88.0981 87.2676C88.0981 94.8068 94.2046 100.918 101.737 100.918Z" fill="#CCCCCC"/>
<path d="M165.061 136.508C172.594 136.508 178.701 130.396 178.701 122.857C178.701 115.318 172.594 109.207 165.061 109.207C157.529 109.207 151.422 115.318 151.422 122.857C151.422 130.396 157.529 136.508 165.061 136.508Z" fill="#E6E6E6"/>
<path d="M228.386 27.3016C235.919 27.3016 242.025 21.1899 242.025 13.6508C242.025 6.11168 235.919 0 228.386 0C220.854 0 214.747 6.11168 214.747 13.6508C214.747 21.1899 220.854 27.3016 228.386 27.3016Z" fill="#4F46E5"/>
<path d="M350.164 128.968C357.697 128.968 363.803 122.857 363.803 115.318C363.803 107.779 357.697 101.667 350.164 101.667C342.631 101.667 336.525 107.779 336.525 115.318C336.525 122.857 342.631 128.968 350.164 128.968Z" fill="#4F46E5"/>
<path d="M345.342 221.658C350.447 222.273 363.501 217.612 364.208 224.703C370.927 244.499 370.728 320.384 370.728 320.384L360.499 320.872C360.499 320.872 352.324 260.577 348.459 247.677C346.52 263.356 346.859 323.309 346.859 323.309L337.604 323.797C337.604 323.797 329.302 272.744 329.255 257.759C328.246 246.783 330.721 230.518 329.662 219.908C334.723 221.513 340.051 222.108 345.342 221.658Z" fill="#3F3D56"/>
<path d="M277.828 333.692V120.274C277.828 117.537 279.752 115.318 282.124 115.318H301.297C303.67 115.318 305.593 117.536 305.593 120.274V334.25L277.828 333.692Z" fill="#3F3D56"/>
<path d="M327.976 164.227C325.929 160.038 323.428 156.086 320.518 152.443C319.91 151.732 319.357 150.976 318.862 150.181C317.815 148.363 317.503 146.227 316.841 144.238C314.99 138.661 310.372 134.181 309.247 128.413C308.837 126.317 305.381 132.41 306.29 135.009C307.912 139.714 308.121 144.697 310.187 149.24C312.252 153.784 314.678 158.143 316.461 162.789C317.474 165.426 318.282 168.152 319.768 170.589C321.254 173.027 323.573 175.07 326.373 175.435C326.354 173.668 326.623 171.91 327.167 170.229C327.776 168.308 328.858 166.046 327.976 164.227Z" fill="#9E616A"/>
<path d="M358.62 167.386C358.495 163.939 359.033 160.5 360.203 157.255C360.652 156.012 361.178 154.749 361.134 153.428C361.07 152.2 360.486 151.074 359.955 149.962C358.123 146.135 356.837 142.079 355.571 138.032L353.135 130.402C352.341 129.819 356.979 129.617 357.968 130.987C361.202 135.482 363.652 140.645 366.214 145.555C366.868 146.725 367.425 147.946 367.88 149.206C368.506 151.249 368.802 153.379 368.757 155.515C368.757 159.508 368.231 163.486 367.685 167.445C367.34 169.926 366.887 172.627 365.011 174.27C363.063 171.774 361.105 169.336 358.62 167.386Z" fill="#9E616A"/>
<path d="M345.741 163.436C351.323 163.436 355.848 158.907 355.848 153.32C355.848 147.733 351.323 143.204 345.741 143.204C340.159 143.204 335.633 147.733 335.633 153.32C335.633 158.907 340.159 163.436 345.741 163.436Z" fill="#9E616A"/>
<path d="M337.524 143.227C337.411 142.92 337.385 142.588 337.45 142.267C337.516 141.946 337.669 141.65 337.894 141.412C338.146 141.213 338.482 141.139 338.752 140.949C339.137 140.625 339.452 140.226 339.677 139.777C340.368 138.81 341.378 138.119 342.529 137.827C343.681 137.534 344.898 137.659 345.966 138.18C347.636 139.055 348.645 140.807 350.13 141.986C350.884 142.598 351.759 143.051 352.518 143.663C354.037 144.977 355.118 146.726 355.613 148.674C356.106 150.608 356.393 152.59 356.471 154.585C356.55 155.183 356.527 155.791 356.402 156.382C356.248 156.877 356.019 157.346 355.722 157.771C354.195 160.086 352.183 162.189 349.661 163.384C347.139 164.579 344.071 164.773 341.584 163.523C341.334 163.422 341.118 163.249 340.964 163.027C340.823 162.689 340.789 162.316 340.867 161.958C341.002 160.542 340.722 159.118 340.062 157.859C339.599 156.933 338.905 156.137 338.535 155.178C338.191 154.105 338.043 152.979 338.1 151.853C338.056 148.937 338.254 146.034 337.524 143.227Z" fill="#2D293D"/>
<path d="M24.5298 333.982V230.947C24.5298 229.626 26.4534 228.554 28.8261 228.554H47.9988C50.3715 228.554 52.2951 229.627 52.2951 230.947V334.25L24.5298 333.982Z" fill="#3F3D56"/>
<path d="M400.013 335.323H0.987111C0.857921 335.323 0.734022 335.272 0.642671 335.181C0.55132 335.089 0.5 334.965 0.5 334.836C0.5 334.707 0.55132 334.583 0.642671 334.491C0.734022 334.4 0.857921 334.348 0.987111 334.348H400.013C400.142 334.348 400.266 334.4 400.357 334.491C400.449 334.583 400.5 334.707 400.5 334.836C400.5 334.965 400.449 335.089 400.357 335.181C400.266 335.272 400.142 335.323 400.013 335.323H400.013Z" fill="#E6E6E6"/>
<path d="M214.503 333.619V91.4292C214.503 88.3231 216.427 85.8051 218.799 85.8051H237.972C240.345 85.8051 242.268 88.3231 242.268 91.4292V334.25L214.503 333.619Z" fill="#4F46E5"/>
<path d="M306.008 133.761C308.429 133.761 310.392 131.797 310.392 129.373C310.392 126.95 308.429 124.986 306.008 124.986C303.586 124.986 301.624 126.95 301.624 129.373C301.624 131.797 303.586 133.761 306.008 133.761Z" fill="#A0616A"/>
<path d="M354.718 131.811C357.14 131.811 359.102 129.847 359.102 127.423C359.102 125 357.14 123.036 354.718 123.036C352.297 123.036 350.334 125 350.334 127.423C350.334 129.847 352.297 131.811 354.718 131.811Z" fill="#A0616A"/>
<path d="M365.371 181.739C365.799 181.347 369.286 160.934 369.266 160.474C369.212 157.959 361.545 155.087 360.011 156.087C358.563 157.03 356.043 167.848 354.42 169.818L352.704 166.812H339.065L338.239 168.349C336.449 167.27 334.839 166.275 334.265 165.946C334.067 165.812 333.853 165.706 333.626 165.631C332.209 165.314 330.878 164.688 329.729 163.798C328.609 162.935 323.409 153.898 322.016 154.136C320.443 154.4 315.136 158.992 315.197 163.4C315.865 163.385 324.556 180.779 324.678 181.427C325.345 184.167 327.549 224.125 328.26 225.987C331.536 225.67 328.95 225.105 332.121 225.987C335.536 226.938 339.14 225.909 342.662 225.529C344.129 225.384 345.602 225.318 347.075 225.334C352.434 225.358 360.081 225.656 365.269 226.987C365.298 223.584 362.312 216.222 361.206 213.009C361.062 212.049 361.066 211.072 361.221 210.113C361.362 208.938 364.215 183.038 365.371 181.739Z" fill="#E6E6E6"/>
</g>
<defs>
<clipPath id="clip0_4011_2456">
<rect width="400" height="335.323" fill="white" transform="translate(0.5)"/>
</clipPath>
</defs>
</svg>
