<svg width="147" height="1317" viewBox="0 0 147 1317" fill="none" xmlns="http://www.w3.org/2000/svg">
<path d="M119.639 1204.37C84.5096 1255.29 -7.00002 1316.5 -7.00002 1316.5L-7 -24.0527C-7 -24.0527 87.2946 -108.676 130.307 -59.7977C184.492 1.77686 90.4421 86.9943 78.6879 185.886C70.4395 255.282 83.9556 298.976 68.364 365.618C58.904 406.051 35.0619 420.078 33.9512 462.784C32.3834 523.061 75.1098 536.167 94.1736 589.653C121.73 666.966 148.818 717.136 138.91 803.116C129.339 886.167 61.9778 895.931 53.9106 979.323C44.7564 1073.95 166.042 1137.1 119.639 1204.37Z" fill="#EEF2FF"/>
</svg>
