<svg width="43" height="39" viewBox="0 0 43 39" fill="none" xmlns="http://www.w3.org/2000/svg">
<path d="M3.00228 38.0734C2.412 38.0734 1.91721 37.8737 1.5179 37.4744C1.1186 37.0751 0.918945 36.5803 0.918945 35.99C0.918945 35.3998 1.1186 34.905 1.5179 34.5057C1.91721 34.1063 2.412 33.9067 3.00228 33.9067H40.5023C41.0926 33.9067 41.5873 34.1063 41.9867 34.5057C42.386 34.905 42.5856 35.3998 42.5856 35.99C42.5856 36.5803 42.386 37.0751 41.9867 37.4744C41.5873 37.8737 41.0926 38.0734 40.5023 38.0734H3.00228ZM6.12728 31.8234C5.25922 31.8234 4.52138 31.5195 3.91374 30.9119C3.3061 30.3043 3.00228 29.5664 3.00228 28.6984V20.365C3.00228 19.497 3.3061 18.7591 3.91374 18.1515C4.52138 17.5438 5.25922 17.24 6.12728 17.24C6.99533 17.24 7.73318 17.5438 8.34082 18.1515C8.94846 18.7591 9.25228 19.497 9.25228 20.365V28.6984C9.25228 29.5664 8.94846 30.3043 8.34082 30.9119C7.73318 31.5195 6.99533 31.8234 6.12728 31.8234ZM16.5439 31.8234C15.6759 31.8234 14.938 31.5195 14.3304 30.9119C13.7228 30.3043 13.4189 29.5664 13.4189 28.6984V9.94836C13.4189 9.08031 13.7228 8.34246 14.3304 7.73482C14.938 7.12718 15.6759 6.82336 16.5439 6.82336C17.412 6.82336 18.1498 7.12718 18.7575 7.73482C19.3651 8.34246 19.6689 9.08031 19.6689 9.94836V28.6984C19.6689 29.5664 19.3651 30.3043 18.7575 30.9119C18.1498 31.5195 17.412 31.8234 16.5439 31.8234ZM26.9606 31.8234C26.0926 31.8234 25.3547 31.5195 24.7471 30.9119C24.1394 30.3043 23.8356 29.5664 23.8356 28.6984V16.1984C23.8356 15.3303 24.1394 14.5925 24.7471 13.9848C25.3547 13.3772 26.0926 13.0734 26.9606 13.0734C27.8287 13.0734 28.5665 13.3772 29.1742 13.9848C29.7818 14.5925 30.0856 15.3303 30.0856 16.1984V28.6984C30.0856 29.5664 29.7818 30.3043 29.1742 30.9119C28.5665 31.5195 27.8287 31.8234 26.9606 31.8234ZM37.3773 31.8234C36.5092 31.8234 35.7714 31.5195 35.1637 30.9119C34.5561 30.3043 34.2523 29.5664 34.2523 28.6984V3.69836C34.2523 2.83031 34.5561 2.09246 35.1637 1.48482C35.7714 0.877184 36.5092 0.573364 37.3773 0.573364C38.2453 0.573364 38.9832 0.877184 39.5908 1.48482C40.1985 2.09246 40.5023 2.83031 40.5023 3.69836V28.6984C40.5023 29.5664 40.1985 30.3043 39.5908 30.9119C38.9832 31.5195 38.2453 31.8234 37.3773 31.8234Z" fill="#3730A3"/>
</svg>
