<svg width="38" height="39" viewBox="0 0 38 39" fill="none" xmlns="http://www.w3.org/2000/svg">
<path d="M4.66667 38.0734C3.52083 38.0734 2.53993 37.6654 1.72396 36.8494C0.907986 36.0334 0.5 35.0525 0.5 33.9067V4.74003C0.5 3.5942 0.907986 2.61329 1.72396 1.79732C2.53993 0.98135 3.52083 0.573364 4.66667 0.573364H33.8333C34.9792 0.573364 35.9601 0.98135 36.776 1.79732C37.592 2.61329 38 3.5942 38 4.74003V33.9067C38 35.0525 37.592 36.0334 36.776 36.8494C35.9601 37.6654 34.9792 38.0734 33.8333 38.0734H4.66667ZM4.66667 29.6359V33.9067H33.8333V15.6775L22.8958 28.0734C22.5139 28.5248 22.0191 28.7591 21.4115 28.7765C20.8038 28.7938 20.2917 28.5942 19.875 28.1775L13 21.3025L4.66667 29.6359ZM4.66667 23.6984L11.5417 16.8234C11.9583 16.4067 12.4444 16.1984 13 16.1984C13.5556 16.1984 14.0417 16.4067 14.4583 16.8234L21.2292 23.5942L33.8333 9.42753V4.74003H4.66667V23.6984ZM4.66667 15.6775V9.42753V23.5942V15.365V29.6359V21.3025V29.74V15.6775ZM4.66667 23.6984V4.74003V23.5942V15.365V23.6984ZM4.66667 29.6359V21.3025V29.74V15.6775V33.9067V29.6359Z" fill="#3730A3"/>
</svg>
