<svg width="47" height="39" viewBox="0 0 47 39" fill="none" xmlns="http://www.w3.org/2000/svg">
<path d="M2.91439 13.0734V4.74003C2.91439 3.5942 3.32237 2.61329 4.13835 1.79732C4.95432 0.98135 5.93522 0.573364 7.08106 0.573364H40.4144C41.5602 0.573364 42.5411 0.98135 43.3571 1.79732C44.1731 2.61329 44.5811 3.5942 44.5811 4.74003V13.0734H40.4144V4.74003H7.08106V13.0734H2.91439ZM7.08106 31.8234C5.93522 31.8234 4.95432 31.4154 4.13835 30.5994C3.32237 29.7834 2.91439 28.8025 2.91439 27.6567V17.24H7.08106V27.6567H40.4144V17.24H44.5811V27.6567C44.5811 28.8025 44.1731 29.7834 43.3571 30.5994C42.5411 31.4154 41.5602 31.8234 40.4144 31.8234H7.08106ZM2.91439 38.0734C2.32411 38.0734 1.82932 37.8737 1.43001 37.4744C1.03071 37.0751 0.831055 36.5803 0.831055 35.99C0.831055 35.3998 1.03071 34.905 1.43001 34.5057C1.82932 34.1063 2.32411 33.9067 2.91439 33.9067H44.5811C45.1713 33.9067 45.6661 34.1063 46.0654 34.5057C46.4647 34.905 46.6644 35.3998 46.6644 35.99C46.6644 36.5803 46.4647 37.0751 46.0654 37.4744C45.6661 37.8737 45.1713 38.0734 44.5811 38.0734H2.91439ZM2.91439 17.24V13.0734H15.4144C15.7963 13.0734 16.1609 13.1775 16.5081 13.3859C16.8554 13.5942 17.1158 13.872 17.2894 14.2192L19.7373 19.0629L26.1436 7.86503C26.3172 7.55253 26.5602 7.30079 26.8727 7.10982C27.1852 6.91885 27.5324 6.82336 27.9144 6.82336C28.2963 6.82336 28.6609 6.91885 29.0081 7.10982C29.3554 7.30079 29.6158 7.58725 29.7894 7.9692L32.3415 13.0734H44.5811V17.24H31.0394C30.6574 17.24 30.2929 17.1445 29.9456 16.9536C29.5984 16.7626 29.338 16.4761 29.1644 16.0942L27.8102 13.3338L21.404 24.5317C21.2304 24.8789 20.9699 25.1393 20.6227 25.3129C20.2755 25.4866 19.9109 25.5734 19.529 25.5734C19.147 25.5734 18.7911 25.4692 18.4613 25.2609C18.1314 25.0525 17.8797 24.7748 17.7061 24.4275L14.1123 17.24H2.91439Z" fill="#3730A3"/>
</svg>
