<svg width="43" height="43" viewBox="0 0 43 43" fill="none" xmlns="http://www.w3.org/2000/svg">
<path d="M36.2314 42.1568C31.8912 42.1568 27.603 41.2106 23.3669 39.3183C19.1308 37.4259 15.2766 34.7436 11.8044 31.2714C8.33214 27.7992 5.64985 23.945 3.75749 19.7089C1.86513 15.4728 0.918945 11.1846 0.918945 6.84432C0.918945 6.21932 1.12728 5.69849 1.54395 5.28182C1.96061 4.86516 2.48145 4.65682 3.10645 4.65682H11.5439C12.0301 4.65682 12.4641 4.82175 12.846 5.15162C13.228 5.48148 13.4537 5.8721 13.5231 6.32349L14.8773 13.6152C14.9467 14.1707 14.9294 14.6395 14.8252 15.0214C14.721 15.4034 14.5301 15.7332 14.2523 16.011L9.2002 21.1152C9.89464 22.3999 10.7193 23.6412 11.6742 24.8391C12.629 26.037 13.6794 27.1915 14.8252 28.3027C15.9016 29.379 17.0301 30.3773 18.2106 31.2974C19.3912 32.2176 20.6412 33.0596 21.9606 33.8235L26.8564 28.9277C27.1689 28.6152 27.5769 28.3808 28.0804 28.2245C28.5839 28.0683 29.0787 28.0249 29.5648 28.0943L36.7523 29.5527C37.2384 29.6915 37.6377 29.9433 37.9502 30.3079C38.2627 30.6724 38.4189 31.0804 38.4189 31.5318V39.9693C38.4189 40.5943 38.2106 41.1152 37.7939 41.5318C37.3773 41.9485 36.8564 42.1568 36.2314 42.1568ZM7.22103 17.1568L10.6585 13.7193L9.77311 8.82349H5.1377C5.31131 10.2471 5.55436 11.6534 5.86686 13.0422C6.17936 14.4311 6.63075 15.8027 7.22103 17.1568ZM25.8669 35.8027C27.221 36.3929 28.6012 36.8617 30.0075 37.2089C31.4137 37.5561 32.8287 37.7818 34.2523 37.886V33.3027L29.3564 32.3131L25.8669 35.8027ZM32.1689 21.3235C29.287 21.3235 26.8304 20.3079 24.7992 18.2766C22.7679 16.2454 21.7523 13.7888 21.7523 10.9068C21.7523 8.02488 22.7679 5.56828 24.7992 3.53703C26.8304 1.50578 29.287 0.490158 32.1689 0.490158C35.0509 0.490158 37.5075 1.50578 39.5387 3.53703C41.57 5.56828 42.5856 8.02488 42.5856 10.9068C42.5856 13.7888 41.57 16.2454 39.5387 18.2766C37.5075 20.3079 35.0509 21.3235 32.1689 21.3235ZM32.1689 17.1568C32.4467 17.1568 32.6898 17.0527 32.8981 16.8443C33.1064 16.636 33.2106 16.3929 33.2106 16.1152V9.86516C33.2106 9.58738 33.1064 9.34433 32.8981 9.13599C32.6898 8.92766 32.4467 8.82349 32.1689 8.82349C31.8912 8.82349 31.6481 8.92766 31.4398 9.13599C31.2314 9.34433 31.1273 9.58738 31.1273 9.86516V16.1152C31.1273 16.3929 31.2314 16.636 31.4398 16.8443C31.6481 17.0527 31.8912 17.1568 32.1689 17.1568ZM32.1689 6.74016C32.4467 6.74016 32.6898 6.63599 32.8981 6.42766C33.1064 6.21932 33.2106 5.97627 33.2106 5.69849C33.2106 5.42071 33.1064 5.17766 32.8981 4.96932C32.6898 4.76099 32.4467 4.65682 32.1689 4.65682C31.8912 4.65682 31.6481 4.76099 31.4398 4.96932C31.2314 5.17766 31.1273 5.42071 31.1273 5.69849C31.1273 5.97627 31.2314 6.21932 31.4398 6.42766C31.6481 6.63599 31.8912 6.74016 32.1689 6.74016Z" fill="#3730A3"/>
</svg>
