<svg width="12" height="10" viewBox="0 0 12 10" fill="none" xmlns="http://www.w3.org/2000/svg">
<path d="M4.13525 7.58248L10.5167 1.20106C10.6904 1.02731 10.8942 0.94043 11.1279 0.94043C11.3617 0.94043 11.5655 1.02731 11.7394 1.20106C11.9131 1.37495 12 1.58118 12 1.81976C12 2.05834 11.9131 2.26457 11.7394 2.43845L4.74669 9.44561C4.57281 9.61937 4.369 9.70625 4.13525 9.70625C3.9015 9.70625 3.69768 9.61937 3.5238 9.44561L0.253584 6.1754C0.0798287 6.00152 -0.00463412 5.79529 0.000195953 5.55671C0.00502602 5.31813 0.0943189 5.1119 0.268074 4.93801C0.441957 4.76426 0.648188 4.67738 0.886768 4.67738C1.12535 4.67738 1.33158 4.76426 1.50546 4.93801L4.13525 7.58248Z" fill="#4338CA"/>
</svg>
