<svg width="38" height="39" viewBox="0 0 38 39" fill="none" xmlns="http://www.w3.org/2000/svg">
<path d="M12.6354 19.3234L15.7083 16.2504C16.125 15.8338 16.3333 15.3477 16.3333 14.7921C16.3333 14.2366 16.125 13.7504 15.7083 13.3338C15.2917 12.9171 14.7969 12.7088 14.224 12.7088C13.651 12.7088 13.1562 12.9171 12.7396 13.3338L8.20833 17.865C8 18.0734 7.85243 18.2991 7.76562 18.5421C7.67882 18.7852 7.63542 19.0456 7.63542 19.3234C7.63542 19.6011 7.67882 19.8616 7.76562 20.1046C7.85243 20.3477 8 20.5734 8.20833 20.7817L12.7396 25.3129C13.1562 25.7296 13.651 25.9379 14.224 25.9379C14.7969 25.9379 15.2917 25.7296 15.7083 25.3129C16.125 24.8963 16.3333 24.4102 16.3333 23.8546C16.3333 23.2991 16.125 22.8129 15.7083 22.3963L12.6354 19.3234ZM25.8646 19.3234L22.7917 22.3963C22.375 22.8129 22.1667 23.2991 22.1667 23.8546C22.1667 24.4102 22.375 24.8963 22.7917 25.3129C23.2083 25.7296 23.7031 25.9379 24.276 25.9379C24.849 25.9379 25.3437 25.7296 25.7604 25.3129L30.2917 20.7817C30.5 20.5734 30.6476 20.3477 30.7344 20.1046C30.8212 19.8616 30.8646 19.6011 30.8646 19.3234C30.8646 19.0456 30.8212 18.7852 30.7344 18.5421C30.6476 18.2991 30.5 18.0734 30.2917 17.865L25.7604 13.3338C25.5521 13.1254 25.3177 12.9692 25.0573 12.865C24.7969 12.7609 24.5365 12.7088 24.276 12.7088C24.0156 12.7088 23.7552 12.7609 23.4948 12.865C23.2344 12.9692 23 13.1254 22.7917 13.3338C22.375 13.7504 22.1667 14.2366 22.1667 14.7921C22.1667 15.3477 22.375 15.8338 22.7917 16.2504L25.8646 19.3234ZM4.66667 38.0734C3.52083 38.0734 2.53993 37.6654 1.72396 36.8494C0.907986 36.0334 0.5 35.0525 0.5 33.9067V4.74003C0.5 3.5942 0.907986 2.61329 1.72396 1.79732C2.53993 0.98135 3.52083 0.573364 4.66667 0.573364H33.8333C34.9792 0.573364 35.9601 0.98135 36.776 1.79732C37.592 2.61329 38 3.5942 38 4.74003V33.9067C38 35.0525 37.592 36.0334 36.776 36.8494C35.9601 37.6654 34.9792 38.0734 33.8333 38.0734H4.66667ZM4.66667 33.9067H33.8333V4.74003H4.66667V33.9067Z" fill="#3730A3"/>
</svg>
