<svg width="34" height="41" viewBox="0 0 34 41" fill="none" xmlns="http://www.w3.org/2000/svg">
<path d="M17.2477 19.2402C17.838 19.2402 18.3328 19.0405 18.7321 18.6412C19.1314 18.2419 19.3311 17.7471 19.3311 17.1568V10.9068C19.3311 10.3166 19.1314 9.82177 18.7321 9.42246C18.3328 9.02316 17.838 8.82351 17.2477 8.82351C16.6574 8.82351 16.1627 9.02316 15.7633 9.42246C15.364 9.82177 15.1644 10.3166 15.1644 10.9068V17.1568C15.1644 17.7471 15.364 18.2419 15.7633 18.6412C16.1627 19.0405 16.6574 19.2402 17.2477 19.2402ZM17.2477 27.5735C17.838 27.5735 18.3328 27.3739 18.7321 26.9745C19.1314 26.5752 19.3311 26.0804 19.3311 25.4902C19.3311 24.8999 19.1314 24.4051 18.7321 24.0058C18.3328 23.6065 17.838 23.4068 17.2477 23.4068C16.6574 23.4068 16.1627 23.6065 15.7633 24.0058C15.364 24.4051 15.1644 24.8999 15.1644 25.4902C15.1644 26.0804 15.364 26.5752 15.7633 26.9745C16.1627 27.3739 16.6574 27.5735 17.2477 27.5735ZM17.2477 36.636C21.4838 32.7471 24.6262 29.2141 26.6748 26.037C28.7234 22.86 29.7477 20.0388 29.7477 17.5735C29.7477 13.7888 28.5411 10.6898 26.1279 8.27663C23.7147 5.86344 20.7547 4.65684 17.2477 4.65684C13.7408 4.65684 10.7807 5.86344 8.36751 8.27663C5.95432 10.6898 4.74772 13.7888 4.74772 17.5735C4.74772 20.0388 5.77203 22.86 7.82064 26.037C9.86925 29.2141 13.0116 32.7471 17.2477 36.636ZM17.2477 40.7506C16.7616 40.7506 16.2755 40.6638 15.7894 40.4902C15.3033 40.3166 14.8693 40.0561 14.4873 39.7089C12.2304 37.6256 10.2338 35.5943 8.49772 33.6152C6.76161 31.636 5.31196 29.7176 4.14876 27.86C2.98557 26.0023 2.10015 24.2141 1.49251 22.4954C0.884874 20.7766 0.581055 19.136 0.581055 17.5735C0.581055 12.3652 2.2564 8.21587 5.6071 5.12559C8.95779 2.03531 12.838 0.490173 17.2477 0.490173C21.6574 0.490173 25.5377 2.03531 28.8883 5.12559C32.239 8.21587 33.9144 12.3652 33.9144 17.5735C33.9144 19.136 33.6106 20.7766 33.0029 22.4954C32.3953 24.2141 31.5099 26.0023 30.3467 27.86C29.1835 29.7176 27.7338 31.636 25.9977 33.6152C24.2616 35.5943 22.2651 37.6256 20.0081 39.7089C19.6262 40.0561 19.1922 40.3166 18.7061 40.4902C18.2199 40.6638 17.7338 40.7506 17.2477 40.7506Z" fill="#3730A3"/>
</svg>
