<svg width="32" height="43" viewBox="0 0 32 43" fill="none" xmlns="http://www.w3.org/2000/svg">
<path d="M16.25 42.1568C15.1042 42.1568 14.1233 41.7489 13.3073 40.9329C12.4913 40.1169 12.0833 39.136 12.0833 37.9902H20.4167C20.4167 39.136 20.0087 40.1169 19.1927 40.9329C18.3767 41.7489 17.3958 42.1568 16.25 42.1568ZM10 35.9068C9.40972 35.9068 8.91493 35.7072 8.51562 35.3079C8.11632 34.9086 7.91667 34.4138 7.91667 33.8235C7.91667 33.2332 8.11632 32.7384 8.51562 32.3391C8.91493 31.9398 9.40972 31.7402 10 31.7402H22.5C23.0903 31.7402 23.5851 31.9398 23.9844 32.3391C24.3837 32.7384 24.5833 33.2332 24.5833 33.8235C24.5833 34.4138 24.3837 34.9086 23.9844 35.3079C23.5851 35.7072 23.0903 35.9068 22.5 35.9068H10ZM8.4375 29.6568C6.04167 28.2332 4.14062 26.3235 2.73438 23.9277C1.32813 21.5318 0.625 18.9277 0.625 16.1152C0.625 11.7749 2.1441 8.08566 5.18229 5.04746C8.22049 2.00927 11.9097 0.490173 16.25 0.490173C20.5903 0.490173 24.2795 2.00927 27.3177 5.04746C30.3559 8.08566 31.875 11.7749 31.875 16.1152C31.875 18.9277 31.1719 21.5318 29.7656 23.9277C28.3594 26.3235 26.4583 28.2332 24.0625 29.6568H8.4375ZM9.6875 25.4902H22.8125C24.375 24.3791 25.5816 23.0075 26.4323 21.3756C27.283 19.7436 27.7083 17.9902 27.7083 16.1152C27.7083 12.9207 26.5972 10.2124 24.375 7.99017C22.1528 5.76795 19.4444 4.65684 16.25 4.65684C13.0556 4.65684 10.3472 5.76795 8.125 7.99017C5.90278 10.2124 4.79167 12.9207 4.79167 16.1152C4.79167 17.9902 5.21701 19.7436 6.06771 21.3756C6.9184 23.0075 8.125 24.3791 9.6875 25.4902Z" fill="#3730A3"/>
</svg>
