<svg width="43" height="43" viewBox="0 0 43 43" fill="none" xmlns="http://www.w3.org/2000/svg">
<path d="M21.7523 42.1568C18.8703 42.1568 16.162 41.61 13.6273 40.5162C11.0926 39.4225 8.88769 37.9381 7.01269 36.0631C5.13769 34.1881 3.65332 31.9832 2.55957 29.4485C1.46582 26.9138 0.918945 24.2055 0.918945 21.3235C0.918945 18.4416 1.46582 15.7332 2.55957 13.1985C3.65332 10.6638 5.13769 8.45892 7.01269 6.58392C8.88769 4.70892 11.0926 3.22455 13.6273 2.1308C16.162 1.03705 18.8703 0.490173 21.7523 0.490173C24.6689 0.490173 27.386 1.03705 29.9033 2.1308C32.4207 3.22455 34.6169 4.70892 36.4919 6.58392C38.3669 8.45892 39.8512 10.6551 40.945 13.1725C42.0387 15.6898 42.5856 18.4068 42.5856 21.3235C42.5856 21.6707 42.5769 22.0093 42.5596 22.3391C42.5422 22.669 42.5162 22.9902 42.4814 23.3027C42.412 23.893 42.1603 24.3443 41.7262 24.6568C41.2922 24.9693 40.7801 25.0735 40.1898 24.9693C39.5995 24.8652 39.1308 24.57 38.7835 24.0839C38.4363 23.5978 38.2974 23.0596 38.3669 22.4693C38.3669 22.2957 38.3755 22.1048 38.3929 21.8964C38.4103 21.6881 38.4189 21.4971 38.4189 21.3235C38.4189 18.9971 37.9936 16.827 37.1429 14.8131C36.2922 12.7992 35.103 11.0284 33.5752 9.50059C32.0474 7.97281 30.2766 6.78358 28.2627 5.93288C26.2488 5.08219 24.0787 4.65684 21.7523 4.65684C17.0995 4.65684 13.1585 6.27142 9.92936 9.50059C6.7002 12.7298 5.08561 16.6707 5.08561 21.3235C5.08561 25.9763 6.7002 29.9173 9.92936 33.1464C13.1585 36.3756 17.0995 37.9902 21.7523 37.9902C23.3148 37.9902 24.8165 37.7905 26.2575 37.3912C27.6985 36.9919 29.0613 36.393 30.346 35.5943C30.8321 35.3166 31.3617 35.2124 31.9346 35.2818C32.5075 35.3513 32.9502 35.6291 33.2627 36.1152C33.6099 36.6013 33.7228 37.1308 33.6012 37.7037C33.4797 38.2766 33.1759 38.7193 32.6898 39.0318C31.0578 40.0388 29.3304 40.8114 27.5075 41.3495C25.6846 41.8877 23.7662 42.1568 21.7523 42.1568ZM36.8564 33.8235C36.1273 33.8235 35.511 33.5718 35.0075 33.0683C34.504 32.5648 34.2523 31.9485 34.2523 31.2193C34.2523 30.4902 34.504 29.8739 35.0075 29.3704C35.511 28.8669 36.1273 28.6152 36.8564 28.6152C37.5856 28.6152 38.2019 28.8669 38.7054 29.3704C39.2089 29.8739 39.4606 30.4902 39.4606 31.2193C39.4606 31.9485 39.2089 32.5648 38.7054 33.0683C38.2019 33.5718 37.5856 33.8235 36.8564 33.8235ZM23.8356 20.4902L30.0856 26.7402C30.4676 27.1221 30.6585 27.6082 30.6585 28.1985C30.6585 28.7888 30.4676 29.2749 30.0856 29.6568C29.7037 30.0388 29.2176 30.2298 28.6273 30.2298C28.037 30.2298 27.5509 30.0388 27.1689 29.6568L20.2939 22.7818C20.0856 22.5735 19.9294 22.3391 19.8252 22.0787C19.721 21.8183 19.6689 21.5492 19.6689 21.2714V12.9902C19.6689 12.3999 19.8686 11.9051 20.2679 11.5058C20.6672 11.1065 21.162 10.9068 21.7523 10.9068C22.3426 10.9068 22.8373 11.1065 23.2367 11.5058C23.636 11.9051 23.8356 12.3999 23.8356 12.9902V20.4902Z" fill="#3730A3"/>
</svg>
