<svg width="26" height="26" viewBox="0 0 26 26" fill="none" xmlns="http://www.w3.org/2000/svg">
<path d="M13 26C11.2017 26 9.51167 25.6587 7.93 24.9762C6.34833 24.2937 4.9725 23.3675 3.8025 22.1975C2.6325 21.0275 1.70625 19.6517 1.02375 18.07C0.34125 16.4883 0 14.7983 0 13C0 11.2017 0.34125 9.51167 1.02375 7.93C1.70625 6.34833 2.6325 4.9725 3.8025 3.8025C4.9725 2.6325 6.34833 1.70625 7.93 1.02375C9.51167 0.34125 11.2017 0 13 0C14.7983 0 16.4883 0.34125 18.07 1.02375C19.6517 1.70625 21.0275 2.6325 22.1975 3.8025C23.3675 4.9725 24.2937 6.34833 24.9762 7.93C25.6587 9.51167 26 11.2017 26 13C26 14.7983 25.6587 16.4883 24.9762 18.07C24.2937 19.6517 23.3675 21.0275 22.1975 22.1975C21.0275 23.3675 19.6517 24.2937 18.07 24.9762C16.4883 25.6587 14.7983 26 13 26ZM13 23.4C14.2133 23.4 15.3562 23.2104 16.4287 22.8312C17.5012 22.4521 18.4817 21.9158 19.37 21.2225L17.5175 19.37C16.8892 19.825 16.1904 20.1771 15.4212 20.4262C14.6521 20.6754 13.845 20.8 13 20.8C10.8333 20.8 8.99167 20.0417 7.475 18.525C5.95833 17.0083 5.2 15.1667 5.2 13C5.2 10.8333 5.95833 8.99167 7.475 7.475C8.99167 5.95833 10.8333 5.2 13 5.2C15.1667 5.2 17.0083 5.95833 18.525 7.475C20.0417 8.99167 20.8 10.8333 20.8 13C20.8 13.845 20.67 14.6575 20.41 15.4375C20.15 16.2175 19.7925 16.9217 19.3375 17.55L21.19 19.4025C21.8833 18.5142 22.425 17.5283 22.815 16.445C23.205 15.3617 23.4 14.2133 23.4 13C23.4 10.0967 22.3925 7.6375 20.3775 5.6225C18.3625 3.6075 15.9033 2.6 13 2.6C10.0967 2.6 7.6375 3.6075 5.6225 5.6225C3.6075 7.6375 2.6 10.0967 2.6 13C2.6 15.9033 3.6075 18.3625 5.6225 20.3775C7.6375 22.3925 10.0967 23.4 13 23.4ZM13 18.2C13.4767 18.2 13.9371 18.1404 14.3812 18.0212C14.8254 17.9021 15.2425 17.7233 15.6325 17.485L13.65 15.5025C13.5417 15.5458 13.4333 15.5729 13.325 15.5837C13.2167 15.5946 13.1083 15.6 13 15.6C12.285 15.6 11.6729 15.3454 11.1637 14.8362C10.6546 14.3271 10.4 13.715 10.4 13C10.4 12.285 10.6546 11.6729 11.1637 11.1637C11.6729 10.6546 12.285 10.4 13 10.4C13.715 10.4 14.3271 10.6546 14.8362 11.1637C15.3454 11.6729 15.6 12.285 15.6 13C15.6 13.13 15.5946 13.2546 15.5837 13.3737C15.5729 13.4929 15.5458 13.6067 15.5025 13.715L17.4525 15.665C17.6908 15.275 17.875 14.8579 18.005 14.4137C18.135 13.9696 18.2 13.4983 18.2 13C18.2 11.57 17.6908 10.3458 16.6725 9.3275C15.6542 8.30917 14.43 7.8 13 7.8C11.57 7.8 10.3458 8.30917 9.3275 9.3275C8.30917 10.3458 7.8 11.57 7.8 13C7.8 14.43 8.30917 15.6542 9.3275 16.6725C10.3458 17.6908 11.57 18.2 13 18.2Z" fill="#1E1B4B"/>
</svg>
